<?xml version="1.0" encoding="UTF-8"?>
<svg width="512px" height="512px" viewBox="0 0 512 512" version="1.1" xmlns="http://www.w3.org/2000/svg" xmlns:xlink="http://www.w3.org/1999/xlink">
    <title>icon-brand-inv</title>
    <g id="icon-brand-inv" stroke="none" stroke-width="1" fill="none" fill-rule="evenodd">
        <g id="app-icon" transform="translate(66.06, 169.16)" fill="#0C2341" fill-rule="nonzero">
            <g id="ajp" transform="translate(0, -0)">
                <path d="M18.54,44.82 C21.18,30.66 29.04,19.14 42.12,10.26 C46.44,7.26 50.1,5.34 53.1,4.5 C58.62,2.82 67.02,1.98 78.3,1.98 L78.3,1.98 L78.48,1.98 L78.66,1.98 L78.84,1.98 L78.84,1.98 L78.84,1.98 C90,1.98 98.4,2.82 104.04,4.5 C107.04,5.34 110.7,7.26 115.02,10.26 C128.1,19.14 135.96,30.66 138.6,44.82 L157.32,146.16 L121.5,146.34 L104.4,52.2 C103.08,45.12 99.54,40.32 93.78,37.8 C91.38,36.72 86.34,36.18 78.66,36.18 C70.86,36.18 65.76,36.72 63.36,37.8 C57.6,40.32 54.06,45.12 52.74,52.2 L35.64,146.34 L0,146.34 L18.54,44.82 Z" id="Shape"></path>
                <path d="M207.36,23.04 L171.9,16.92 L171.9,137.52 C171.9,143.04 171.9,145.8 171.9,145.8 C171.78,147.84 171.24,149.94 170.28,152.1 C167.64,157.86 162.66,161.34 155.34,162.54 L135.72,165.78 L135.9,200.34 L163.08,195.48 C177.84,192.84 189.78,185.28 198.9,172.8 C201.66,168.96 203.58,165.42 204.66,162.18 C206.46,156.66 207.36,148.5 207.36,137.7 L207.36,137.7 L207.36,23.04 Z" id="Shape"></path>
                <path d="M375.48,76.14 L375.48,76.32 L375.48,76.32 C375.48,86.76 374.58,94.86 372.78,100.62 C371.82,103.86 369.9,107.4 367.02,111.24 C357.78,123.96 345.84,131.58 331.2,134.1 L261.54,146.16 L261.54,210.6 L226.26,216.54 L226.26,117.72 L323.46,101.16 C330.78,99.96 335.76,96.48 338.4,90.72 C339.6,88.08 340.2,83.22 340.2,76.14 C340.2,69.06 339.6,64.2 338.4,61.56 C335.76,55.8 330.78,52.32 323.46,51.12 L226.26,34.56 L226.26,0 L331.2,18 C345.84,20.52 357.78,28.14 367.02,40.86 C369.9,44.82 371.82,48.36 372.78,51.48 C374.58,57.24 375.48,65.34 375.48,75.78 L375.48,76.14 Z" id="Shape"></path>
            </g>
        </g>
    </g>
</svg>