<?xml version="1.0" encoding="UTF-8"?>
<svg width="1343px" height="342px" viewBox="0 0 1343 342" version="1.1" xmlns="http://www.w3.org/2000/svg" xmlns:xlink="http://www.w3.org/1999/xlink">
    <title>logo-brand-inv</title>
    <g id="logo-brand-inv" stroke="none" stroke-width="1" fill="none" fill-rule="evenodd">
        <g id="logo-brand" transform="translate(0.0789, 26.3547)" fill="#0C2341">
            <g id="Group" transform="translate(0, 0)">
                <path d="M144.657364,0 C224.54942,0 289.314728,64.765308 289.314728,144.657364 C289.314728,224.54942 224.54942,289.314728 144.657364,289.314728 C64.765308,289.314728 0,224.54942 0,144.657364 C0,64.765308 64.765308,0 144.657364,0 Z M144.817362,79.9253094 L144.337362,79.9253094 L143.641981,79.9265209 C133.964793,79.9604419 126.72992,80.7067048 121.937362,82.1653094 C119.270696,82.9119761 116.017362,84.6186428 112.177362,87.2853094 C100.550696,95.1786428 93.564029,105.418643 91.2173623,118.005309 L74.7373623,208.245309 L106.417362,208.245309 L121.617362,124.565309 C122.790696,118.271976 125.937362,114.005309 131.057362,111.765309 C133.190696,110.805309 137.724029,110.325309 144.657362,110.325309 C151.484029,110.325309 155.964029,110.805309 158.097362,111.765309 C163.217362,114.005309 166.364029,118.271976 167.537362,124.565309 L182.737362,208.245309 L214.577362,208.085309 L197.937362,118.005309 C195.590696,105.418643 188.604029,95.1786428 176.977362,87.2853094 C173.137362,84.6186428 169.884029,82.9119761 167.217362,82.1653094 C162.204029,80.6719761 154.737362,79.9253094 144.817362,79.9253094 Z" id="Combined-Shape"></path>
                <g id="ajp-base" transform="translate(340.6411, 17.7453)" fill-rule="nonzero">
                    <path d="M16.48,100.16 C18.8266667,87.5733333 25.8133333,77.3333333 37.44,69.44 C41.28,66.7733333 44.5333333,65.0666667 47.2,64.32 C52.1066667,62.8266667 59.5733333,62.08 69.6,62.08 L69.6,62.08 L69.76,62.08 L69.92,62.08 L70.08,62.08 L70.08,62.08 L70.08,62.08 C80,62.08 87.4666667,62.8266667 92.48,64.32 C95.1466667,65.0666667 98.4,66.7733333 102.24,69.44 C113.866667,77.3333333 120.853333,87.5733333 123.2,100.16 L139.84,190.24 L108,190.4 L92.8,106.72 C91.6266667,100.426667 88.48,96.16 83.36,93.92 C81.2266667,92.96 76.7466667,92.48 69.92,92.48 C62.9866667,92.48 58.4533333,92.96 56.32,93.92 C51.2,96.16 48.0533333,100.426667 46.88,106.72 L31.68,190.4 L0,190.4 L16.48,100.16 Z" id="Shape"></path>
                    <path d="M184.32,80.8 L152.8,75.36 L152.8,182.56 C152.8,187.466667 152.8,189.92 152.8,189.92 C152.693333,191.733333 152.213333,193.6 151.36,195.52 C149.013333,200.64 144.586667,203.733333 138.08,204.8 L120.64,207.68 L120.8,238.4 L144.96,234.08 C158.08,231.733333 168.693333,225.013333 176.8,213.92 C179.253333,210.506667 180.96,207.36 181.92,204.48 C183.52,199.573333 184.32,192.32 184.32,182.72 L184.32,182.72 L184.32,80.8 Z" id="Shape"></path>
                    <path d="M333.76,128 L333.76,128.16 L333.76,128.16 C333.76,137.44 332.96,144.64 331.36,149.76 C330.506667,152.64 328.8,155.786667 326.24,159.2 C318.026667,170.506667 307.413333,177.28 294.4,179.52 L232.48,190.24 L232.48,247.52 L201.12,252.8 L201.12,164.96 L287.52,150.24 C294.026667,149.173333 298.453333,146.08 300.8,140.96 C301.866667,138.613333 302.4,134.293333 302.4,128 C302.4,121.706667 301.866667,117.386667 300.8,115.04 C298.453333,109.92 294.026667,106.826667 287.52,105.76 L201.12,91.04 L201.12,60.32 L294.4,76.32 C307.413333,78.56 318.026667,85.3333333 326.24,96.64 C328.8,100.16 330.506667,103.306667 331.36,106.08 C332.96,111.2 333.76,118.4 333.76,127.68 L333.76,128 Z" id="Shape"></path>
                    <path d="M559.84,125.12 L559.84,125.12 C559.84,134.613333 559.04,141.813333 557.44,146.72 C556.48,149.6 554.773333,152.746667 552.32,156.16 C544.213333,167.466667 533.6,174.24 520.48,176.48 L427.2,192.64 L427.2,161.92 L513.6,147.2 C520.106667,146.133333 524.533333,143.04 526.88,137.92 C527.84,135.893333 528.32,134.026667 528.32,132.32 L528.32,124.96 C528.32,120.053333 528.32,117.6 528.32,117.6 C528.32,115.893333 527.84,114.026667 526.88,112 C524.533333,106.88 520.106667,103.786667 513.6,102.72 L427.2,88 L427.2,0 L458.56,5.44 L458.56,62.72 L520.48,73.28 C533.493333,75.52 544.106667,82.2933333 552.32,93.6 C554.773333,97.0133333 556.48,100.16 557.44,103.04 C559.04,107.946667 559.84,115.2 559.84,124.8 L559.84,125.12 Z" id="Shape"></path>
                    <path d="M583.68,100.16 C586.026667,87.5733333 593.013333,77.3333333 604.64,69.44 C608.48,66.7733333 611.733333,65.0666667 614.4,64.32 C619.306667,62.8266667 626.773333,62.08 636.8,62.08 L636.8,62.08 L636.96,62.08 L637.12,62.08 L637.28,62.08 L637.28,62.08 L637.28,62.08 C647.2,62.08 654.666667,62.8266667 659.68,64.32 C662.346667,65.0666667 665.6,66.7733333 669.44,69.44 C681.066667,77.3333333 688.053333,87.5733333 690.4,100.16 L707.04,190.24 L675.2,190.4 L660,106.72 C658.826667,100.426667 655.68,96.16 650.56,93.92 C648.426667,92.96 643.946667,92.48 637.12,92.48 C630.186667,92.48 625.653333,92.96 623.52,93.92 C618.4,96.16 615.253333,100.426667 614.08,106.72 L598.88,190.4 L567.2,190.4 L583.68,100.16 Z" id="Shape"></path>
                    <path d="M746.72,121.92 L715.52,127.2 L715.36,102.08 L715.36,101.92 L715.36,101.92 C715.36,92.32 716.106667,85.12 717.6,80.32 C718.346667,77.8666667 720.106667,74.72 722.88,70.88 C730.986667,59.5733333 741.6,52.8 754.72,50.56 L848,34.56 L848,65.28 L761.6,80 C754.88,81.1733333 750.4,84.2133333 748.16,89.12 C747.52,90.6133333 747.093333,92.48 746.88,94.72 C746.773333,96.2133333 746.72,98.72 746.72,102.24 L746.72,121.92 Z M816.8,111.04 L848,105.6 L848.16,127.68 L848.16,128 L848.16,128 C848.16,137.6 847.413333,144.8 845.92,149.6 C845.173333,152.16 843.413333,155.306667 840.64,159.04 C832.426667,170.346667 821.813333,177.12 808.8,179.36 L715.52,195.36 L715.52,164.64 L801.92,149.92 C808.533333,148.746667 812.96,145.706667 815.2,140.8 C816.053333,138.88 816.533333,137.013333 816.64,135.2 C816.64,134.026667 816.693333,131.52 816.8,127.68 L816.8,111.04 Z" id="Shape"></path>
                    <path d="M992.96,193.92 L899.68,177.76 C886.56,175.52 875.946667,168.8 867.84,157.6 C865.386667,154.293333 863.68,151.093333 862.72,148 C861.12,143.093333 860.32,135.893333 860.32,126.4 L860.32,126.4 L860.32,126.08 L860.32,126.08 L860.32,126.08 C860.32,116.586667 861.12,109.386667 862.72,104.48 C863.68,101.6 865.28,98.56 867.52,95.36 C875.626667,83.9466667 886.346667,77.0666667 899.68,74.72 L992.96,58.56 L992.96,89.28 L906.56,104 C900.053333,105.066667 895.626667,108.16 893.28,113.28 C892.213333,115.626667 891.68,119.946667 891.68,126.24 C891.68,132.533333 892.213333,136.853333 893.28,139.2 C895.626667,144.32 900.053333,147.413333 906.56,148.48 L992.96,163.2 L992.96,193.92 Z" id="Shape"></path>
                </g>
            </g>
        </g>
    </g>
</svg>