<?xml version="1.0" standalone="no"?>
<!DOCTYPE svg PUBLIC "-//W3C//DTD SVG 1.1//EN" "http://www.w3.org/Graphics/SVG/1.1/DTD/svg11.dtd" >
<svg xmlns="http://www.w3.org/2000/svg">
<metadata>Generated by IcoMoon</metadata>
<defs>
<font id="AJPBase" horiz-adv-x="1024">
<font-face units-per-em="1024" ascent="960" descent="-64" />
<missing-glyph horiz-adv-x="1024" />
<glyph unicode="&#x20;" horiz-adv-x="512" d="" />
<glyph unicode="&#xe900;" glyph-name="circle-info" d="M463.574 627.578c0 26.745 21.681 48.426 48.426 48.426s48.426-21.681 48.426-48.426c0-26.745-21.681-48.426-48.426-48.426s-48.426 21.681-48.426 48.426zM415.149 482.301c0 17.857 14.427 32.284 32.284 32.284h64.567c17.857 0 32.284-14.427 32.284-32.284v-225.986h32.284c17.857 0 32.284-14.427 32.284-32.284s-14.427-32.284-32.284-32.284h-129.135c-17.857 0-32.284 14.427-32.284 32.284s14.427 32.284 32.284 32.284h32.284v193.702h-32.284c-17.857 0-32.284 14.427-32.284 32.284zM512 960c282.77 0 512-229.23 512-512s-229.23-512-512-512c-282.77 0-512 229.23-512 512s229.23 512 512 512zM512 883.957c-240.772 0-435.957-195.184-435.957-435.957s195.184-435.957 435.957-435.957c240.772 0 435.957 195.184 435.957 435.957s-195.184 435.957-435.957 435.957z" />
<glyph unicode="&#xe901;" glyph-name="location-arrow" d="M777.027 831.022c33.794 11.173 69.841 6.989 92.414-18.852l-1.111 0.73c33.545-21.644 39.917-61.683 27.587-98.977l-0.416-1.257-0.512-1.22c-58.648-139.681-141.762-341.93-249.327-606.708l-1.525-3.754-2.368-3.288c-18.087-25.108-44.062-38.54-74.797-38.54-43.622 0-74.911 24.589-87.237 67.495l-1.315 4.579-0.001 282.298-284.084-0.003-4.579 1.315c-42.905 12.326-67.495 43.615-67.495 87.237 0 30.735 13.432 56.711 38.54 74.797l3.288 2.368 3.754 1.525c264.778 107.565 467.027 190.679 606.708 249.327l1.22 0.512zM811.606 768.974c-3.662 0.067-7.971-0.562-12.222-1.847l-0.035-0.015-2.82-1.181c-138.395-58.072-336.812-139.612-595.287-244.635l-3.59-1.46-0.156-0.132c-5.419-4.768-7.566-9.976-7.566-17.628l0.005-0.794c0.151-10.978 3.525-16.187 14.326-20.068l0.063-0.022h339.326l-0.003-0.644 2.44-0.003v-339.326l0.022-0.063c3.881-10.8 9.091-14.175 20.068-14.326l0.794-0.005c7.652 0 12.86 2.147 17.628 7.566l0.132 0.156 1.46 3.59c105.023 258.475 186.563 456.892 244.635 595.287l1.195 2.855c0.815 2.694 1.366 5.411 1.643 7.972l-11.596 17.965z" />
<glyph unicode="&#xe902;" glyph-name="location-arrow-box" d="M938.667 960c47.128 0 85.333-38.205 85.333-85.333v-853.333c0-47.128-38.205-85.333-85.333-85.333h-853.333c-47.128 0-85.333 38.205-85.333 85.333v853.333c0 47.128 38.205 85.333 85.333 85.333h853.333zM729.865 732.609l-563.189-230.395c-22.72-9.28-35.519-33.279-30.879-57.279s25.759-41.279 50.239-41.279h281.594v-281.594c0-24.48 17.28-45.439 41.279-50.239s47.999 8.16 57.279 30.879l230.395 563.189c7.84 19.040 3.36 40.959-11.2 55.519s-36.479 19.040-55.519 11.2z" />
<glyph unicode="&#xe903;" glyph-name="location-arrow-track-up" d="M938.667 960c47.128 0 85.333-38.205 85.333-85.333v-853.333c0-47.128-38.205-85.333-85.333-85.333h-853.333c-47.128 0-85.333 38.205-85.333 85.333v853.333c0 47.128 38.205 85.333 85.333 85.333h853.333zM506.801 665.289c-20.591 0-39.258-12.332-47.177-31.338l-235.321-561.151c-9.503-22.627-1.584-48.648 18.667-62.338s47.404-10.974 64.713 6.336l199.118 199.118 199.118-199.118c17.31-17.31 44.349-19.912 64.713-6.336s28.171 39.71 18.667 62.338l-235.321 561.151c-7.919 19.007-26.587 31.338-47.177 31.338zM513.645 890.027h-13.653c-9.426 0-17.067-7.641-17.067-17.067v-136.533c0-9.426 7.641-17.067 17.067-17.067h13.653c9.426 0 17.067 7.641 17.067 17.067v136.533c0 9.426-7.641 17.067-17.067 17.067z" />
<glyph unicode="&#xe904;" glyph-name="battery-full" horiz-adv-x="570" d="M92.16 782.813c0 16.728 14.562 30.414 32.361 30.414h323.61c17.799 0 32.361-13.686 32.361-30.414v-729.928c0-16.728-14.562-30.414-32.361-30.414h-323.61c-17.799 0-32.361 13.686-32.361 30.414v729.928zM2.276 78.222c0-78.578 63.644-142.222 142.222-142.222h284.444c78.578 0 142.222 63.644 142.222 142.222v682.667c0 78.578-63.644 142.222-142.222 142.222h-28.444c0 31.467-25.422 56.889-56.889 56.889h-113.778c-31.467 0-56.889-25.422-56.889-56.889h-28.444c-78.578 0-142.222-63.644-142.222-142.222v-682.667zM172.942 732.444v-625.778h227.556v625.778h-227.556z" />
<glyph unicode="&#xe905;" glyph-name="battery-three-quarters" horiz-adv-x="570" d="M92.16 782.813c0 16.728 14.562 30.414 32.361 30.414h323.61c17.799 0 32.361-13.686 32.361-30.414v-729.928c0-16.728-14.562-30.414-32.361-30.414h-323.61c-17.799 0-32.361 13.686-32.361 30.414v729.928zM2.276 78.222c0-78.578 63.644-142.222 142.222-142.222h284.444c78.578 0 142.222 63.644 142.222 142.222v682.667c0 78.578-63.644 142.222-142.222 142.222h-28.444c0 31.467-25.422 56.889-56.889 56.889h-113.778c-31.467 0-56.889-25.422-56.889-56.889h-28.444c-78.578 0-142.222-63.644-142.222-142.222v-682.667zM172.942 551.538v-444.871h227.556v444.871h-227.556z" />
<glyph unicode="&#xe906;" glyph-name="battery-half" horiz-adv-x="570" d="M92.16 782.813c0 16.728 14.562 30.414 32.361 30.414h323.61c17.799 0 32.361-13.686 32.361-30.414v-729.928c0-16.728-14.562-30.414-32.361-30.414h-323.61c-17.799 0-32.361 13.686-32.361 30.414v729.928zM2.276 78.222c0-78.578 63.644-142.222 142.222-142.222h284.444c78.578 0 142.222 63.644 142.222 142.222v682.667c0 78.578-63.644 142.222-142.222 142.222h-28.444c0 31.467-25.422 56.889-56.889 56.889h-113.778c-31.467 0-56.889-25.422-56.889-56.889h-28.444c-78.578 0-142.222-63.644-142.222-142.222v-682.667zM172.942 438.898v-332.231h227.556v332.231h-227.556z" />
<glyph unicode="&#xe907;" glyph-name="battery-quarter" horiz-adv-x="570" d="M92.16 782.813c0 16.728 14.562 30.414 32.361 30.414h323.61c17.799 0 32.361-13.686 32.361-30.414v-729.928c0-16.728-14.562-30.414-32.361-30.414h-323.61c-17.799 0-32.361 13.686-32.361 30.414v729.928zM2.276 78.222c0-78.578 63.644-142.222 142.222-142.222h284.444c78.578 0 142.222 63.644 142.222 142.222v682.667c0 78.578-63.644 142.222-142.222 142.222h-28.444c0 31.467-25.422 56.889-56.889 56.889h-113.778c-31.467 0-56.889-25.422-56.889-56.889h-28.444c-78.578 0-142.222-63.644-142.222-142.222v-682.667zM172.942 278.471v-171.804h227.556v171.804h-227.556z" />
<glyph unicode="&#xe908;" glyph-name="battery-low" horiz-adv-x="570" d="M92.16 782.813c0 16.728 14.562 30.414 32.361 30.414h323.61c17.799 0 32.361-13.686 32.361-30.414v-729.928c0-16.728-14.562-30.414-32.361-30.414h-323.61c-17.799 0-32.361 13.686-32.361 30.414v729.928zM2.276 78.222c0-78.578 63.644-142.222 142.222-142.222h284.444c78.578 0 142.222 63.644 142.222 142.222v682.667c0 78.578-63.644 142.222-142.222 142.222h-28.444c0 31.467-25.422 56.889-56.889 56.889h-113.778c-31.467 0-56.889-25.422-56.889-56.889h-28.444c-78.578 0-142.222-63.644-142.222-142.222v-682.667zM172.942 220.444v-113.778h227.556v113.778h-227.556z" />
<glyph unicode="&#xe909;" glyph-name="battery-storage" d="M389.12 594.286v-67.779c0-24.514-7.694-95.573 30.72-95.573h184.801c37.492 0 30.239 68.365 30.239 95.573v67.779h389.12v-512c0-80.686-65.6-146.286-146.286-146.286h-731.429c-80.686 0-146.286 65.6-146.286 146.286v512h389.12zM643.413 273.541h-286.72c-33.003 0-59.733-26.731-59.733-59.733v-119.467c0-33.003 26.731-59.733 59.733-59.733h286.72c33.003 0 59.733 26.731 59.733 59.733v11.947c13.216 0 23.893 10.677 23.893 23.893v47.787c0 13.216-10.677 23.893-23.893 23.893v11.947c0 33.003-26.731 59.733-59.733 59.733zM439.249 960l-50.273-292.571h-388.976l115.886 232c18.743 37.029 56.686 60.571 98.286 60.571h225.077zM809.829 960c41.6 0 79.543-23.543 98.286-60.571l115.886-232h-388.976l-50.273 292.571h225.077z" />
<glyph unicode="&#xe90a;" d="M578.073 611.894l306.030-6.181 8.361-8.532v-76.619l-6.102-8.18c-0.365-0.108-0.69-0.205-1.001-0.297l-0.368-0.11c-0.061-0.018-0.122-0.036-0.182-0.054l-0.943-0.28c-2.199-0.654-5.599-1.664-17.631-5.24-23.479-6.978-23.479-6.978-60.376-17.944-36.628-10.886-58.971-17.527-81.355-24.179l-5.173-1.537c-33.424-9.934-69.376-20.619-154.975-46.060l-10.93 8.94 15.973 178.503 8.672 7.771zM585.687 594.672l-14.141-158.048 0.841 0.246c77.81 23.126 111.61 33.172 143.811 42.742l3.446 1.024c22.384 6.653 44.727 13.293 81.355 24.179 36.896 10.966 36.896 10.966 60.376 17.944 7.292 2.167 11.413 3.392 14.020 4.166v61.891l-289.707 5.854z" />
<glyph unicode="&#xe90b;" d="M466.718 611.894l-306.030-6.181-8.361-8.532v-76.619l6.102-8.18c0.365-0.108 0.69-0.205 1.001-0.297l0.368-0.11c0.061-0.018 0.122-0.036 0.182-0.054l0.943-0.28c2.199-0.654 5.599-1.664 17.631-5.24 23.479-6.978 23.479-6.978 60.376-17.944 36.628-10.886 58.971-17.527 81.355-24.179l5.173-1.537c33.424-9.934 69.376-20.619 154.975-46.060l10.93 8.94-15.973 178.503-8.672 7.771zM459.103 594.672l14.141-158.048-0.841 0.246c-77.81 23.126-111.61 33.172-143.811 42.742l-3.446 1.024c-22.384 6.653-44.727 13.293-81.355 24.179-36.896 10.966-36.896 10.966-60.376 17.944-7.292 2.167-11.413 3.392-14.020 4.166v61.891l289.707 5.854z" />
<glyph unicode="&#xe90c;" d="M566.001 717.273c14.138 0 25.6-11.462 25.6-25.6 0-0.73-0.031-1.46-0.094-2.188l-48.837-569.262-3.443-6.143c-5.646-4.157-10.632-6.423-15.533-6.423-4.673 0-9.815 2.094-16.187 6.041l-4.010 6.543-47.659 569.297c-1.179 14.089 9.286 26.467 23.375 27.646 0.71 0.059 1.423 0.089 2.136 0.089h84.653zM566.001 700.207h-84.653c-0.238 0-0.475-0.010-0.712-0.030-4.696-0.393-8.185-4.519-7.792-9.215l47.282-564.819 0.055-0.028c0.436-0.22 0.849-0.416 1.238-0.589l0.566-0.241c1.011-0.412 1.626-0.56 1.708-0.56 0.234 0 0.912 0.258 1.945 0.832l0.376 0.214 48.488 565.174c0.010 0.121 0.018 0.243 0.023 0.364l0.008 0.365c0 4.713-3.821 8.533-8.533 8.533z" />
<glyph unicode="&#xe90d;" d="M546.962 252.548l133.783-25.715 6.923-8.38v-57.774l-7.091-8.41-141.875-24.339-9.952 9.049 8.092 107.827 10.12 7.741zM553.142 233.982l-6.557-87.385 124.013 21.275v43.534l-117.456 22.576z" />
<glyph unicode="&#xe90e;" d="M498.211 252.548l-133.783-25.715-6.923-8.38v-57.774l7.091-8.41 141.875-24.339 9.952 9.049-8.092 107.827-10.12 7.741zM492.031 233.982l6.557-87.385-124.013 21.275v43.534l117.456 22.576z" />
<glyph unicode="&#xe90f;" d="M523.689 287.388l29.692-35.237-13.051-10.997-16.634 19.739-16.603-19.735-13.059 10.988 23.13 27.488z" />
<glyph unicode="&#xe910;" d="M523.694 556.618c15.464 0 30.914-6.391 46.35-19.172l-11.098-129.879c-11.573-5.12-23.324-7.679-35.252-7.679s-23.858 2.56-35.788 7.679l-12.059 129.879c16.435 12.781 32.384 19.172 47.848 19.172z" />
<glyph unicode="&#xe911;" d="M523.694 561.738c16.75 0 33.316-6.852 49.615-20.348l2.064-1.709-11.584-135.569-2.772-1.226c-12.216-5.404-24.67-8.117-37.323-8.117-12.638 0-25.252 2.707-37.807 8.094l-2.798 1.2-12.6 135.703 2.214 1.722c17.274 13.434 34.286 20.25 50.991 20.25zM523.694 551.498c-13.334 0-27.251-5.243-41.789-15.892l-0.7-0.516 11.51-123.962 0.976-0.383c9.411-3.592 18.782-5.492 28.133-5.715l1.87-0.022c9.959 0 19.793 1.901 29.532 5.72l0.877 0.356 10.605 124.088-0.66 0.521c-13.18 10.241-26.167 15.451-39.025 15.787l-1.33 0.017z" />
<glyph unicode="&#xe912;" d="M661.89 659.902c10.139 0 17.064-8.881 23.248-25.080l0.561-1.47v-37.622h-49.206v37.927l0.789 1.705c7.386 15.96 14.771 24.54 24.607 24.54zM661.786 642.456l-0.228-0.196c-0.385-0.339-0.827-0.789-1.315-1.356-1.921-2.232-4.083-5.73-6.394-10.446l-0.288-0.593v-17.067h15.070v17.374l-0.319 0.799c-1.758 4.299-3.465 7.558-5.042 9.732l-0.391 0.521c-0.355 0.455-0.679 0.823-0.962 1.107l-0.13 0.126z" />
<glyph unicode="&#xe913;" d="M383.823 659.902c-10.139 0-17.064-8.881-23.248-25.080l-0.561-1.47v-37.622h49.206v37.927l-0.789 1.705c-7.386 15.96-14.771 24.54-24.607 24.54zM383.927 642.456l0.228-0.196c0.385-0.339 0.827-0.789 1.315-1.356 1.921-2.232 4.083-5.73 6.394-10.446l0.288-0.593v-17.067h-15.070v17.374l0.319 0.799c1.758 4.299 3.465 7.558 5.042 9.732l0.391 0.521c0.355 0.455 0.679 0.823 0.962 1.107l0.13 0.126z" />
<glyph unicode="&#xe914;" d="M516.158 780.211c3.235 4.244 9.528 4.51 13.111 0.555 10.691-11.803 18.413-21.514 23.218-29.265 4.916-7.931 10.010-20.101 15.444-36.692 1.807-5.517-2.304-11.189-8.109-11.189h-70.481c-5.889 0-10.008 5.825-8.045 11.378 5.737 16.227 10.747 28.229 15.132 36.143 4.34 7.833 10.908 17.496 19.731 29.070zM523.515 761.5l-0.406-0.561c-5.062-7.037-8.983-13.070-11.753-18.069-2.801-5.055-6.059-12.415-9.737-22.025l-0.063-0.158h46.285l-0.502 1.359c-3.191 8.546-6.176 15.137-8.906 19.719l-0.453 0.745c-3.123 5.038-7.919 11.347-14.365 18.872l-0.101 0.119z" />
<glyph unicode="&#xe915;" d="M508.524 760.32c4.713 0 8.533-3.821 8.533-8.533s-3.821-8.533-8.533-8.533h-94.413c-4.713 0-8.533 3.821-8.533 8.533s3.821 8.533 8.533 8.533h94.413z" />
<glyph unicode="&#xe916;" d="M540.404 760.32c-4.713 0-8.533-3.821-8.533-8.533s3.821-8.533 8.533-8.533h94.413c4.713 0 8.533 3.821 8.533 8.533s-3.821 8.533-8.533 8.533h-94.413z" />
<glyph unicode="&#xe917;" d="M557.494 572.535l324.63-13.36 111.469-16.065 7.316-8.446v-27.718l-8.239-8.528-452.154-15.584-8.605 10.464 16.923 72.648 8.661 6.59zM563.852 555.195l-12.797-54.921 432.783 14.916v12.083l-103.735 14.947-316.252 12.974z" />
<glyph unicode="&#xe918;" d="M469.93 572.535l-324.63-13.36-111.469-16.065-7.316-8.446v-27.718l8.239-8.528 452.154-15.584 8.605 10.464-16.923 72.648-8.661 6.59zM463.572 555.195l12.797-54.921-432.783 14.916v12.083l103.735 14.947 316.252 12.974z" />
<glyph unicode="&#xe919;" d="M515.165 732.251l6.262-7.042c29.071-32.695 45.436-65.503 48.802-98.407 3.312-32.372-4.648-78.258-23.704-138.033l0.352 1.121-11.212-293.713h-41.117l-0.372 8.144-13.060 285.631-0.553 1.891c-16.733 57.543-24.038 101.848-21.789 133.238l0.12 1.559c2.721 32.81 19.466 65.706 49.882 98.686l6.388 6.927zM514.928 706.575l-1.19-1.398c-23.161-27.37-35.685-54.020-37.835-79.949-2.442-29.449 4.805-73.388 21.878-131.46l0.291-0.988 0.047-1.029 12.73-278.505h8.387l10.676 279.601 0.353 1.106c18.406 57.736 26.009 101.565 22.986 131.112-2.677 26.17-14.949 52.812-37.030 79.941l-1.293 1.57z" />
<glyph unicode="&#xe91a;" d="M515.049 719.539c27.695-31.511 43.258-62.713 46.69-93.606 1.882-16.942-8.399-34.397-30.843-52.366h-34.19c-21.595 17.911-31.364 35.367-29.308 52.366 3.684 30.447 19.567 61.648 47.651 93.606z" />
<glyph unicode="&#xe91b;" d="M518.895 722.919c28.342-32.248 44.375-64.39 47.933-96.42 2.112-19.011-9.057-37.974-32.732-56.928l-3.2-1.123h-34.19l-3.269 1.179c-22.802 18.913-33.424 37.892-31.122 56.922 3.82 31.573 20.17 63.692 48.888 96.371h7.692zM515.046 711.692l-0.87-1.035c-24.503-29.293-38.356-57.743-41.695-85.339-1.736-14.345 6.381-29.574 25.005-45.702l1.084-0.929h30.508l1.156 0.951c19.010 15.864 27.631 30.814 26.503 44.818l-0.087 0.912c-3.107 27.97-16.631 56.387-40.708 85.257l-0.896 1.067z" />
<glyph unicode="&#xe91c;" d="M574.41 211.066l5.432-1.952 22.901-18.903 3.101-6.581v-27.647l-8.533-8.533h-167.189l-8.533 8.533v27.647l3.251 6.702 23.981 18.903 5.283 1.832h120.307zM571.341 193.999h-114.282l-18.405-14.507v-14.974h150.122v15.090l-17.435 14.391z" />
<glyph unicode="&#xe91d;" d="M503.613 847.75c18.766 0 37.282-60.084 55.548-180.251v-31.031c-24.051-17.138-42.567-25.706-55.548-25.706s-32.472 8.569-58.473 25.706v31.031c20.216 120.168 39.707 180.251 58.473 180.251z" />
<glyph unicode="&#xe91e;" d="M503.613 852.87c23.185 0 41.664-59.962 60.61-184.602l0.058-0.769v-31.031l-2.149-4.17c-24.852-17.708-44.188-26.657-58.519-26.657-14.266 0-34.509 8.899-61.291 26.551l-2.302 4.275v31.031l0.071 0.849c20.957 124.573 40.404 184.522 63.522 184.522zM503.613 842.63c-14.414 0-33.949-60.219-53.424-175.981l0.071 0.426v-27.839l0.882-0.571c23.093-14.894 40.485-22.445 51.715-22.773l0.756-0.011c11.114 0 27.766 7.478 49.51 22.597l0.916 0.642v27.989l-0.468 3.074c-17.253 112.294-35.385 171.249-49.527 172.429l-0.432 0.018z" />
<glyph unicode="&#xe91f;" d="M503.613 856.283c26.132 0 44.585-59.881 63.984-187.502l0.097-1.282v-171.238l-8.533-8.533h-114.021l-8.533 8.533v171.238l0.118 1.416c21.451 127.511 40.869 187.369 66.888 187.369zM503.613 839.216c-3.866 0-12.032-12.825-20.576-39.163-9.591-29.565-19.438-74.265-29.482-133.971l0.118 0.709v-161.997h96.952v162.055l-0.379 2.494c-8.758 57.1-17.558 100.225-26.348 129.26l-0.479 1.57c-8.099 26.282-16.017 39.043-19.807 39.043z" />
<glyph unicode="&#xe920;" d="M582.802 753.017c2.243 1.722 5.457 1.299 7.179-0.945l18.431-24.017 1.058-3.117v-129.246c0-2.828-2.292-5.12-5.12-5.12s-5.12 2.292-5.12 5.12l-0.003 127.51-17.37 22.636c-1.62 2.111-1.341 5.083 0.568 6.86l0.377 0.319z" />
<glyph unicode="&#xe921;" d="M604.35 569.306c2.828 0 5.12-2.292 5.12-5.12v-40.207c0-2.828-2.292-5.12-5.12-5.12s-5.12 2.292-5.12 5.12v40.207c0 2.828 2.292 5.12 5.12 5.12z" />
<glyph unicode="&#xe922;" d="M423.147 753.017c-2.243 1.722-5.457 1.299-7.179-0.945l-18.431-24.017-1.058-3.117v-182.939c0-2.828 2.292-5.12 5.12-5.12s5.12 2.292 5.12 5.12l0.003 181.202 17.37 22.636c1.62 2.111 1.341 5.083-0.568 6.86l-0.377 0.319z" />
<glyph unicode="&#xe923;" d="M601.713 682.165l5.275-8.777-45.189-27.156-5.275 8.777z" />
<glyph unicode="&#xe924;" d="M401.372 682.165l-5.275-8.777 45.189-27.156 5.275 8.777z" />
<glyph unicode="&#xe925;" d="M400.835 593.699l-4.201-9.339 45.189-20.33 4.201 9.339z" />
<glyph unicode="&#xe926;" d="M501.382 590.646l0.905-0.003c18.811-0.376 37.172-20.406 37.172-39.37 0-18.801-18.417-36.318-37.445-35.939-19.039 0.38-36.647 18.016-36.647 37.145 0 19.512 17.89 38.543 36.92 38.163l-0.905 0.003zM502.014 576.992c-11.122 0.222-22.994-12.408-22.994-24.513 0-11.639 11.605-23.262 23.266-23.495 11.473-0.229 23.519 11.228 23.519 22.288 0 11.725-12.623 25.496-23.791 25.719z" />
<glyph unicode="&#xe927;" d="M859.843 672.444l5.894-0.555c7.613-3.66 13.055-6.86 16.535-9.845 3.526-3.023 7.321-7.773 11.627-14.375l-4.852-12.881-322.412-90.020-5.34 0.248-26.256 10.032-4.043 12.722 12.143 18.117 4.892 3.495 311.813 83.062zM861.14 655.129l-305.613-81.411-4.39-6.547 13.619-5.205 307.647 85.939c-0.295 0.307-0.577 0.584-0.846 0.833l-0.394 0.351c-1.725 1.479-4.975 3.472-9.633 5.844l-0.39 0.197z" />
<glyph unicode="&#xe928;" d="M139.067 432.087l-5.746 0.529c-7.819 3.65-13.403 6.838-16.968 9.806-3.619 3.013-7.525 7.76-11.959 14.359l4.851 12.995 332.071 90.020 5.834-0.5 21.617-10.062 4.345-10.847-7.080-18.087-5.809-5.151-321.155-83.062zM137.806 449.387l313.924 81.19 2.57 6.564-11.527 5.366-316.706-85.856 0.369-0.363c0.146-0.139 0.288-0.272 0.428-0.396l0.408-0.353c1.792-1.492 5.157-3.496 9.972-5.876l0.561-0.275z" />
<glyph unicode="&#xe929;" d="M477.781 504.794l49.037-0.308 8.48-8.533v-44.112l-6.587-8.308c-11.518-2.698-20.285-4.066-26.56-4.066-6.282 0-14.995 1.37-26.392 4.072l-6.565 8.303v44.419l8.587 8.533zM486.26 487.676v-28.993l0.277-0.059c6.386-1.312 11.392-2.002 14.926-2.083l0.687-0.008c3.565 0 8.849 0.692 15.74 2.094l0.339 0.073v28.774l-31.969 0.201z" />
<glyph unicode="&#xe92a;" d="M502.246 456.533c4.713 0 8.533-3.821 8.533-8.533v-186.497c0-4.713-3.821-8.533-8.533-8.533s-8.533 3.821-8.533 8.533v186.497c0 4.713 3.821 8.533 8.533 8.533z" />
<glyph unicode="&#xe92b;" d="M502.246 219.615c4.713 0 8.533-3.821 8.533-8.533v-155.71c0-4.713-3.821-8.533-8.533-8.533s-8.533 3.821-8.533 8.533v155.71c0 4.713 3.821 8.533 8.533 8.533z" />
<glyph unicode="&#xe92c;" d="M505.252 271.69l87.434-32.918 5.527-7.986v-27.901l-9.518-8.476-86.433 10.047-84.835-10.045-9.537 8.474v27.901l5.477 7.967 85.822 32.918 6.063 0.019zM502.275 254.577l-77.319-29.655v-12.431l76.286 9.029 1.988 0.002 77.913-9.052v12.414l-78.868 29.693z" />
<glyph unicode="&#xe92d;" d="M532.594 133.86c2.828 0 5.12-2.292 5.12-5.12v-124.438c0-2.828-2.292-5.12-5.12-5.12s-5.12 2.292-5.12 5.12v124.438c0 2.828 2.292 5.12 5.12 5.12z" />
<glyph unicode="&#xe92e;" glyph-name="multicopter" d="M505.118 708.081l8.499-7.774 14.175-158.623 45.090-42.39 155.174-13.557 7.791-8.501v-33.697l-7.932-8.512-157.081-11.103-43.022-45.278-14.197-154.812-8.498-7.754h-33.033l-8.512 7.927-11.007 154.622-40.987 41.619-159.742 14.794-7.746 8.497v33.697l7.669 8.489 157.492 16.046 48.026 46.111 10.225 152.236 8.514 7.962h29.103zM497.315 691.014h-13.322l-9.907-147.573-2.604-5.584-52.527-50.435-5.045-2.334-152.752-15.559v-18.21l155.101-14.365 5.293-2.509 45.382-46.080 2.432-5.382 10.668-149.834h17.295l13.76 150.007 2.312 5.099 47.343 49.824 5.584 2.634 152.451 10.78v17.923l-150.329 13.129-5.103 2.284-49.606 46.642-2.654 5.457-13.772 154.085zM809.98 663.603c12.653 0 1.361-87.37-8.792-132.743-10.507-24.429-20.996-41.341-31.464-50.736-5.178 15.273-5.178 40.861 0 76.762 14.259 63.722 27.603 106.716 40.256 106.716zM809.98 665.309c7.68 0 8.845-18.456 5.856-51.219-2.414-26.456-7.64-59.73-13.080-83.905-10.597-24.636-21.203-41.739-31.892-51.331l-2.756 0.722c-5.287 15.593-5.287 41.406-0.049 77.683 16.326 72.963 28.889 108.050 41.922 108.050zM809.98 661.896c-10.224 0-22.986-35.643-38.567-105.253-4.828-33.473-5.123-57.873-0.947-73.107l0.081-0.283 0.601 0.598c9.127 9.288 18.338 24.499 27.514 45.406l0.86 1.977c5.31 23.731 10.513 56.859 12.914 83.169 2.646 28.997 1.478 47.495-2.457 47.495zM730.724 258.523c-12.653 0-1.361 87.37 8.792 132.743 10.507 24.429 20.996 41.341 31.464 50.736 5.178-15.273 5.178-40.861 0-76.762-14.259-63.722-27.603-106.716-40.256-106.716zM730.724 256.817c-7.68 0-8.845 18.456-5.856 51.219 2.414 26.456 7.64 59.73 13.080 83.905 10.597 24.636 21.203 41.739 31.892 51.331l2.756-0.722c5.287-15.593 5.287-41.406 0.049-77.683-16.326-72.963-28.889-108.050-41.922-108.050zM730.724 260.23c10.224 0 22.986 35.643 38.567 105.253 4.828 33.473 5.123 57.873 0.947 73.107l-0.081 0.283-0.601-0.598c-9.127-9.288-18.338-24.499-27.514-45.406l-0.86-1.977c-5.31-23.731-10.513-56.859-12.914-83.169-2.646-28.997-1.478-47.495 2.457-47.495zM798.442 462.080c0-14.738-12.948-28.661-27.388-28.612-14.438 0.050-27.894 14.032-27.894 28.743 0 14.698 13.599 28.791 27.953 28.743 14.309-0.049 27.329-14.191 27.329-28.873zM760.227 462.211c0-5.438 5.986-11.659 10.886-11.676 4.689-0.016 10.263 5.977 10.263 11.546s-5.73 11.791-10.321 11.806c-4.753 0.016-10.828-6.28-10.828-11.676zM246.78 663.603c12.653 0 1.361-87.37-8.792-132.743-10.507-24.429-20.996-41.341-31.464-50.736-5.178 15.273-5.178 40.861 0 76.762 14.259 63.722 27.603 106.716 40.256 106.716zM246.78 665.309c7.68 0 8.845-18.456 5.856-51.219-2.414-26.456-7.64-59.73-13.080-83.905-10.597-24.636-21.203-41.739-31.892-51.331l-2.756 0.722c-5.287 15.593-5.287 41.406-0.049 77.683 16.326 72.963 28.889 108.050 41.922 108.050zM246.78 661.896c-10.224 0-22.986-35.643-38.567-105.253-4.828-33.473-5.123-57.873-0.947-73.107l0.081-0.283 0.601 0.598c9.127 9.288 18.338 24.499 27.514 45.406l0.86 1.977c5.31 23.731 10.513 56.859 12.914 83.169 2.646 28.997 1.478 47.495-2.457 47.495zM167.524 258.523c-12.653 0-1.361 87.37 8.792 132.743 10.507 24.429 20.996 41.341 31.464 50.736 5.178-15.273 5.178-40.861 0-76.762-14.259-63.722-27.603-106.716-40.256-106.716zM167.524 256.817c-7.68 0-8.845 18.456-5.856 51.219 2.414 26.456 7.64 59.73 13.080 83.905 10.597 24.636 21.203 41.739 31.892 51.331l2.756-0.722c5.287-15.593 5.287-41.406 0.049-77.683-16.326-72.963-28.889-108.050-41.922-108.050zM167.524 260.23c10.224 0 22.986 35.643 38.567 105.253 4.828 33.473 5.123 57.873 0.947 73.107l-0.081 0.283-0.601-0.598c-9.127-9.288-18.338-24.499-27.514-45.406l-0.86-1.977c-5.31-23.731-10.513-56.859-12.914-83.169-2.646-28.997-1.478-47.495 2.457-47.495zM235.242 462.080c0-14.738-12.948-28.661-27.388-28.612-14.438 0.050-27.894 14.032-27.894 28.743 0 14.698 13.599 28.791 27.953 28.743 14.309-0.049 27.329-14.191 27.329-28.873zM197.027 462.211c0-5.438 5.986-11.659 10.886-11.676 4.689-0.016 10.263 5.977 10.263 11.546s-5.73 11.791-10.321 11.806c-4.753 0.016-10.828-6.28-10.828-11.676zM692.040 778.251c4.534-11.813-81.080-32.581-127.077-39.363-26.572 1.055-46.119 4.786-58.642 11.193 12.403 10.308 36.291 19.477 71.664 27.509 64.599 9.524 109.52 12.474 114.055 0.661zM693.633 778.862c2.752-7.17-14.061-14.872-45.718-23.822-25.564-7.227-58.5-14.273-83.020-17.858-26.797 1.064-46.565 4.837-59.351 11.379l-0.314 2.832c12.662 10.523 36.762 19.774 72.506 27.885 73.968 10.906 111.226 11.752 115.897-0.416zM690.447 777.639c-3.664 9.545-41.513 8.686-112.083-1.714-32.98-7.488-55.865-15.957-68.591-25.315l-0.235-0.177 0.774-0.347c11.942-5.192 29.444-8.34 52.25-9.415l2.154-0.095c24.058 3.547 56.85 10.561 82.272 17.749 28.019 7.922 44.87 15.641 43.46 19.314zM285.463 707.075c-4.534 11.813 81.080 32.581 127.077 39.363 26.572-1.055 46.119-4.786 58.642-11.193-12.403-10.308-36.291-19.477-71.664-27.509-64.599-9.524-109.52-12.474-114.055-0.661zM283.87 706.463c-2.752 7.17 14.061 14.872 45.718 23.822 25.564 7.227 58.5 14.273 83.020 17.858 26.797-1.064 46.565-4.837 59.351-11.379l0.314-2.832c-12.662-10.523-36.762-19.774-72.506-27.885-73.968-10.906-111.226-11.752-115.897 0.416zM287.056 707.686c3.664-9.545 41.513-8.686 112.083 1.714 32.98 7.488 55.865 15.957 68.591 25.315l0.235 0.177-0.774 0.347c-11.942 5.192-29.444 8.34-52.25 9.415l-2.154 0.095c-24.058-3.547-56.85-10.561-82.272-17.749-28.019-7.922-44.87-15.641-43.46-19.314zM499.768 716.803c-13.759-5.282-31.397 1.817-36.527 15.315-5.128 13.497 3.104 31.070 16.837 36.342 13.722 5.267 31.752-2.378 36.851-15.796 5.082-13.376-3.455-30.6-17.162-35.861zM486.195 752.526c-5.077-1.949-8.739-9.767-6.999-14.347 1.666-4.383 9.258-7.439 14.456-5.444s8.954 9.575 7.324 13.867c-1.688 4.443-9.743 7.858-14.781 5.924zM692.040 215.051c4.534-11.813-81.080-32.581-127.077-39.363-26.572 1.055-46.119 4.786-58.642 11.193 12.403 10.308 36.291 19.477 71.664 27.509 64.599 9.524 109.52 12.474 114.055 0.661zM693.633 215.662c2.752-7.17-14.061-14.872-45.718-23.822-25.564-7.227-58.5-14.273-83.020-17.858-26.797 1.064-46.565 4.837-59.351 11.379l-0.314 2.832c12.662 10.523 36.762 19.774 72.506 27.885 73.968 10.906 111.226 11.752 115.897-0.416zM690.447 214.439c-3.664 9.545-41.513 8.686-112.083-1.714-32.98-7.488-55.865-15.957-68.591-25.315l-0.235-0.177 0.774-0.347c11.942-5.192 29.444-8.34 52.25-9.415l2.154-0.095c24.058 3.547 56.85 10.561 82.272 17.749 28.019 7.922 44.87 15.641 43.46 19.314zM285.463 143.875c-4.534 11.813 81.080 32.581 127.077 39.363 26.572-1.055 46.119-4.786 58.642-11.193-12.403-10.308-36.291-19.477-71.664-27.509-64.599-9.524-109.52-12.474-114.055-0.661zM283.87 143.263c-2.752 7.17 14.061 14.872 45.718 23.822 25.564 7.227 58.5 14.273 83.020 17.858 26.797-1.064 46.565-4.837 59.351-11.379l0.314-2.832c-12.662-10.523-36.762-19.774-72.506-27.885-73.968-10.906-111.226-11.752-115.897 0.416zM287.056 144.486c3.664-9.545 41.513-8.686 112.083 1.714 32.98 7.488 55.865 15.957 68.591 25.315l0.235 0.177-0.774 0.347c-11.942 5.192-29.444 8.34-52.25 9.415l-2.154 0.095c-24.058-3.547-56.85-10.561-82.272-17.749-28.019-7.922-44.87-15.641-43.46-19.314zM499.768 153.603c-13.759-5.282-31.397 1.817-36.527 15.315-5.128 13.497 3.104 31.070 16.837 36.342 13.722 5.267 31.752-2.378 36.851-15.796 5.082-13.376-3.455-30.6-17.162-35.861zM486.195 189.326c-5.077-1.949-8.739-9.767-6.999-14.347 1.666-4.383 9.258-7.439 14.456-5.444s8.954 9.575 7.324 13.867c-1.688 4.443-9.743 7.858-14.781 5.924z" />
<glyph unicode="&#xe92f;" d="M493.913 847.386c8.023 0 14.928-4.959 21.040-13.74l1.522-4.525 9.584-233.717 29.822-73.864 0.611-2.787c1.483-30.984 1.483-64.581 0.003-100.796-1.477-36.137-5.978-97.612-13.506-184.507l-2.559-5.387-40.573-39.372-11.981 0.094-39.314 39.372-2.454 5.199c-8.036 82.17-13.188 143.647-15.456 184.476-2.272 40.894-3.090 74.457-2.448 100.722l0.713 3.212 32.277 73.778 10.007 233.593 1.572 4.581c6.219 8.744 13.151 13.669 21.143 13.669zM493.913 830.32c-1.15 0-3.124-1.274-5.714-4.481l-0.062-0.075-9.96-232.548-0.708-3.055-32.244-73.685-0.010-0.5c-0.519-24.708 0.244-55.997 2.292-93.839l0.184-3.356c2.253-40.54 7.387-101.81 15.401-183.762l-0.3 3.039 31.215-31.256 32.249 31.297 0.265 3.046c7.096 82.341 11.385 141.101 12.865 176.206l0.054 1.305c1.46 35.729 1.46 68.825 0.003 99.284l0.063-1.433-29.825 73.881-0.613 2.845-9.542 232.581-0.058 0.081c-2.358 2.98-4.19 4.264-5.336 4.413l-0.22 0.015z" />
<glyph unicode="&#xe930;" d="M363.251 809.199l-8.533-8.533v-60.554l8.533-8.533h47.827l5.86 2.33 21.786 20.578 37.4-0.003 8.522 8.086 1.976 37.649-8.522 8.981h-114.849zM371.784 792.132h97.324l-1.082-20.579-32.7-0.003-5.86-2.33-21.781-20.574h-35.901v43.486z" />
<glyph unicode="&#xe931;" d="M514.5 700.453l72.539-28.551 4.326-6.352v-18.933l-4.359-6.365-67.285-26.089-9.277 5.879-5.254 73.573 9.31 6.839zM519.578 683.782l3.826-53.545 54.306 21.057v9.609l-58.132 22.88z" />
<glyph unicode="&#xe932;" d="M472.812 700.453l-72.539-28.551-4.326-6.352v-18.933l4.359-6.365 67.285-26.089 9.277 5.879 5.254 73.573-9.31 6.839zM467.735 683.782l-3.826-53.545-54.306 21.057v9.609l58.132 22.88z" />
<glyph unicode="&#xe933;" d="M624.873 809.199l8.533-8.533v-60.554l-8.533-8.533h-47.827l-5.86 2.33-21.786 20.578-37.4-0.003-8.522 8.086-1.976 37.649 8.522 8.981h114.849zM616.339 792.132h-97.324l1.082-20.579 32.7-0.003 5.86-2.33 21.781-20.574h35.901v43.486z" />
<glyph unicode="&#xe934;" d="M619.555 707.030c11.311 0 20.48-9.169 20.48-20.48v-60.457c0-11.311-9.169-20.48-20.48-20.48h-22.469c-11.311 0-20.48 9.169-20.48 20.48v60.457c0 11.311 9.169 20.48 20.48 20.48h22.469zM619.555 686.55h-22.469v-60.457h22.469v60.457z" />
<glyph unicode="&#xe935;" d="M368.393 707.030c-11.311 0-20.48-9.169-20.48-20.48v-60.457c0-11.311 9.169-20.48 20.48-20.48h22.469c11.311 0 20.48 9.169 20.48 20.48v60.457c0 11.311-9.169 20.48-20.48 20.48h-22.469zM368.393 686.55h22.469v-60.457h-22.469v60.457z" />
<glyph unicode="&#xe936;" d="M344.499 212.096c-11.311 0-20.48-9.169-20.48-20.48v-68.35c0-11.311 9.169-20.48 20.48-20.48h34.19c11.311 0 20.48 9.169 20.48 20.48v68.35c0 11.311-9.169 20.48-20.48 20.48h-34.19zM344.499 191.616h34.19v-68.35h-34.19v68.35z" />
<glyph unicode="&#xe937;" d="M641.516 212.096c11.311 0 20.48-9.169 20.48-20.48v-68.35c0-11.311-9.169-20.48-20.48-20.48h-34.19c-11.311 0-20.48 9.169-20.48 20.48v68.35c0 11.311 9.169 20.48 20.48 20.48h34.19zM641.516 191.616h-34.19v-68.35h34.19v68.35z" />
<glyph unicode="&#xe938;" d="M545.090 533.837c30.699 1.427 51.591-3.428 62.63-15.834l-0.211 0.229 0.198-0.206c6.081-6.565 6.72-23.871 4.91-60.963l-0.090-1.81c-0.016-0.313-0.031-0.625-0.047-0.937l-0.145-2.804c-1.291-24.589-3.178-48.9-8.177-108.917-0.172-2.066-0.172-2.066-0.344-4.131-3.526-42.36-5.428-66.685-6.806-88.725l-0.157-2.534-0.152-2.519c-0.050-0.838-0.1-1.674-0.148-2.509l-1.808-4.772c-0.103-0.131-0.194-0.247-0.282-0.359l-0.348-0.443c-0.606-0.772-1.495-1.903-4.921-6.266-5.937-7.559-6.431-8.189-14.311-18.223l-0.523-0.665 0.003-85.399c0-10.115-8-18.362-18.018-18.758l-0.755-0.015h-17.035v17.067h17.035c0.943 0 1.707 0.764 1.707 1.707v88.353l1.822 5.271c10.177 12.959 10.177 12.959 16.653 21.205 1.885 2.4 3.001 3.822 3.726 4.744l0.174 0.223 0.070 1.125c0.051 0.846 0.103 1.693 0.156 2.544l0.16 2.561c1.38 21.854 3.284 46.136 6.752 87.805 0.172 2.067 0.172 2.067 0.344 4.133 4.477 53.749 6.45 78.766 7.732 100.959l0.107 1.869c0.035 0.621 0.070 1.241 0.104 1.859l0.101 1.853 0.098 1.85c0.065 1.233 0.128 2.466 0.19 3.704 0.812 16.224 1.069 28.844 0.73 37.915-0.173 4.633-0.501 8.261-0.962 10.785-0.194 1.062-0.397 1.845-0.57 2.298l0.073-0.212-0.225 0.241c-6.818 7.068-22.471 10.68-46.997 9.725l-1.648-0.070-0.793 17.048z" />
<glyph unicode="&#xe939;" d="M441.34 533.837c-30.699 1.427-51.591-3.428-62.63-15.834l0.211 0.229-0.198-0.206c-6.081-6.565-6.72-23.871-4.91-60.963l0.090-1.81c0.016-0.313 0.031-0.625 0.047-0.937l0.145-2.804c1.291-24.589 3.178-48.9 8.177-108.917 0.172-2.066 0.172-2.066 0.344-4.131 3.526-42.36 5.428-66.685 6.806-88.725l0.157-2.534 0.152-2.519c0.050-0.838 0.1-1.674 0.148-2.509l1.808-4.772c0.103-0.131 0.194-0.247 0.282-0.359l0.348-0.443c0.606-0.772 1.495-1.903 4.921-6.266 5.937-7.559 6.431-8.189 14.311-18.223l0.523-0.665-0.003-85.399c0-10.115 8-18.362 18.018-18.758l0.755-0.015h17.035v17.067h-17.035c-0.943 0-1.707 0.764-1.707 1.707v88.353l-1.822 5.271c-10.177 12.959-10.177 12.959-16.653 21.205-1.885 2.4-3.001 3.822-3.726 4.744l-0.174 0.223-0.070 1.125c-0.051 0.846-0.103 1.693-0.156 2.544l-0.16 2.561c-1.38 21.854-3.284 46.136-6.752 87.805-0.172 2.067-0.172 2.067-0.344 4.133-4.477 53.749-6.45 78.766-7.732 100.959l-0.107 1.869c-0.035 0.621-0.070 1.241-0.104 1.859l-0.101 1.853-0.098 1.85c-0.065 1.233-0.128 2.466-0.19 3.704-0.812 16.224-1.069 28.844-0.73 37.915 0.173 4.633 0.501 8.261 0.962 10.785 0.194 1.062 0.397 1.845 0.57 2.298l-0.073-0.212 0.225 0.241c6.818 7.068 22.471 10.68 46.997 9.725l1.648-0.070 0.793 17.048z" />
<glyph unicode="&#xe93a;" d="M583.3 295.689l14.167-14.789-97.587-93.48-14.173 0.005-97.438 93.48 14.178 14.779 90.355-86.681z" />
<glyph unicode="&#xe93b;" d="M538.553 151.504l8.533-8.533v-54.616l-8.533-8.533h-89.742l-8.532 8.387-0.934 54.616 8.532 8.679h90.675zM530.019 134.437h-73.462l0.642-37.547h72.82v37.547z" />
<glyph unicode="&#xe93c;" d="M447.877 109.357c5.655 0 10.24-4.585 10.24-10.24v-39.453c0-5.655-4.585-10.24-10.24-10.24s-10.24 4.585-10.24 10.24v39.453c0 5.655 4.585 10.24 10.24 10.24z" />
<glyph unicode="&#xe93d;" d="M538.331 109.357c5.655 0 10.24-4.585 10.24-10.24v-39.453c0-5.655-4.585-10.24-10.24-10.24s-10.24 4.585-10.24 10.24v39.453c0 5.655 4.585 10.24 10.24 10.24z" />
<glyph unicode="&#xe93e;" d="M492.797 494.742c12.465 0 24.794-13.251 24.794-25.806s-12.197-24.881-24.794-24.881c-12.597 0-25.325 12.095-25.325 24.881s12.86 25.806 25.325 25.806z" />
<glyph unicode="&#xe93f;" d="M492.797 499.862c15.219 0 29.914-15.46 29.914-30.926 0-15.405-14.511-30.001-29.914-30.001-15.533 0-30.445 14.49-30.445 30.001 0 15.567 15.106 30.926 30.445 30.926zM492.797 489.622c-9.645 0-20.205-10.737-20.205-20.686 0-9.789 10.263-19.761 20.205-19.761 9.734 0 19.674 9.998 19.674 19.761 0 9.924-10.23 20.686-19.674 20.686z" />
<glyph unicode="&#xe940;" d="M478.352 548.682h27.894c9.342 0 16.947-7.51 17.065-16.851l0.978-77.504c0.119-9.391-7.372-17.113-16.762-17.279l-29.436-0.523c-9.424-0.167-17.2 7.337-17.367 16.761l-0.002 0.426 0.564 78.027c0.068 9.377 7.689 16.943 17.066 16.943zM506.246 535.029h-27.894c-1.876 0-3.4-1.513-3.413-3.389l-0.564-78.027v-0.085c0.033-1.885 1.589-3.386 3.473-3.353l29.436 0.523c1.878 0.033 3.376 1.578 3.353 3.456l-0.978 77.504c-0.024 1.868-1.545 3.37-3.413 3.37z" />
<glyph unicode="&#xe941;" d="M607.499 814.509l71.749-73.099 2.443-5.977v-146.808l-2.222-5.744-45.007-49.451 0.001-339.44c0-4.524-3.521-8.226-7.972-8.515l-0.561-0.018c-4.713 0-8.533 3.821-8.533 8.533v342.742l2.222 5.744 45.004 49.452v140.018l-54.682 55.709 0.002-138.223-10.849-8.213-44.962 12.679c-4.536 1.279-7.176 5.993-5.897 10.529s5.993 7.176 10.529 5.897l34.111-9.618 0.002 147.825 14.623 5.977z" />
<glyph unicode="&#xe942;" d="M503.693 669.239c9.56 0 19.535-30.908 29.926-92.724h21.805c0 57.975 0 87.285 0 87.93-7.501 42.691-43.946 80.367-51.731 80.367-10.502 0-39.108-39.112-50.013-80.367 0 0 0-87.93 0-87.93s7.652 0 22.957 0c8.477 61.816 17.495 92.724 27.055 92.724z" />
<glyph unicode="&#xe943;" d="M503.693 746.519c5.007 0 16.681-10.591 27.339-24.86 13.013-17.42 22.647-37.421 26.098-57.214v-87.93l-1.707-1.707h-21.805l-1.683 1.424c-10.141 60.334-20.135 91.3-28.243 91.3-8.064 0-17.097-30.958-25.364-91.249l-1.691-1.475h-22.957l-1.707 1.707v87.928l0.057 0.438c10.127 38.314 38.634 81.638 51.663 81.638zM503.693 743.105c-10.846 0-38.607-42.19-48.363-79.097l0.057 0.218v-86.002h19.76l0.075 0.512c8.51 61.338 17.341 91.563 28.123 92.199l0.348 0.010c11.013 0 20.969-30.849 31.609-94.148l-0.241 1.427h18.654l0.003 77.365c0 0.17 0 0.335 0 0.496l0.003 3.424c0 0.098 0 0.194 0.001 0.287l0.003 1.018c0 0.078 0 0.153 0.001 0.228l0.002 0.64c0 0.068 0.001 0.136 0.001 0.202l0.003 0.591c0.001 0.196 0.002 0.392 0.004 0.593l0.003 0.413c0.001 0.212 0.003 0.433 0.005 0.668-3.324 18.917-12.73 38.444-25.445 55.467-9.966 13.342-21.151 23.489-24.605 23.489z" />
<glyph unicode="&#xe944;" d="M403.652 814.509l-71.749-73.099-2.443-5.977v-146.808l2.222-5.744 45.007-49.451-0.001-339.44c0-4.524 3.521-8.226 7.972-8.515l0.561-0.018c4.713 0 8.533 3.821 8.533 8.533v342.742l-2.222 5.744-45.004 49.452v140.018l54.682 55.709-0.002-138.223 10.849-8.213 44.962 12.679c4.536 1.279 7.176 5.993 5.897 10.529s-5.993 7.176-10.529 5.897l-34.111-9.618-0.002 147.825-14.623 5.977z" />
<glyph unicode="&#xe945;" d="M510.417 754.962c30.728-27.577 48.986-58.107 54.451-91.47l0.112-1.38c0-67.026-3.476-176.647-10.425-328.933l-8.524-8.144h-80.078l-8.52 8.053c-8.652 153.331-12.979 262.975-12.979 329.024l0.203 1.85c7.367 33.18 25.492 63.488 54.173 90.826l11.587 0.174zM504.887 736.791l-1.067-1.102c-22.375-23.232-36.491-48.35-42.503-75.426l0.203 0.892 0.001-1.025c0.084-64.525 4.229-170.203 12.437-316.951l0.058-1.075h63.86l0.042 0.925c6.596 145.829 9.927 251.54 9.994 317.069v1.296l-0.188 1.093c-4.728 26.272-18.722 50.813-42.217 73.708l-0.621 0.597z" />
<glyph unicode="&#xe946;" d="M504.717 674.7c14.91 0 24.672-28.861 35.637-92.422l0.049-0.301 16.045-0.001 6.827-6.827c0-28.849-20.703-43.543-58.557-43.543-37.955 0-58.189 14.854-56.832 43.862l6.819 6.508 17.011 0.001 0.020 0.112c8.926 63.062 17.719 92.012 32.517 92.602l0.464 0.009zM504.761 660.395c-0.391-0.482-0.81-1.084-1.261-1.834-1.968-3.273-4.058-8.568-6.163-15.781-4.396-15.067-8.715-37.955-12.911-68.558l-6.763-5.899-15.892 0.001 0.041-0.293c2.183-15.075 15.188-22.512 41.509-22.764l1.398-0.007c27.289 0 41.248 7.523 44.27 22.934l0.024 0.13-14.368-0.001-6.732 5.695c-5.145 30.609-10.173 53.502-15.039 68.578-2.333 7.229-4.595 12.54-6.678 15.835-0.483 0.765-0.933 1.382-1.332 1.852l-0.102 0.112z" />
<glyph unicode="&#xe947;" d="M530.669 340.395l6.827-6.827v-63.021l-6.827-6.827h-49.445l-6.827 6.827v63.021l6.827 6.827h49.445zM523.84 326.741h-35.789v-49.367h35.789v49.367z" />
<glyph unicode="&#xe948;" d="M411.578 285.555l10.029-1.83-10.867-125.358-5.101-4.678h-24.433l-4.928 6.508 35.3 125.358zM406.714 230.517l-18.749-66.587h12.977l5.772 66.587z" />
<glyph unicode="&#xe949;" d="M601.175 285.555l-10.029-1.83 10.867-125.358 5.101-4.678h24.433l4.928 6.508-35.3 125.358zM606.039 230.517l18.749-66.587h-12.977l-5.772 66.587z" />
<glyph unicode="&#xe94a;" d="M565.028 249.657l9.396-6.169 12.675-29.254 15.811-0.003v-20.48h-22.533l-9.396 6.169-12.677 29.258h-103.287l-13.317-29.412-9.328-6.015h-22.623v20.48l16.019 0.003 13.322 29.409 9.328 6.015z" />
<glyph unicode="&#xe94b;" d="M641.307 169.049l10.24-10.24v-53.786l-10.24-10.24h-269.912l-10.24 10.24v53.786l10.24 10.24h269.912zM631.065 148.569h-249.429v-33.304h249.429v33.304z" />
<glyph unicode="&#xe94c;" d="M679.633 755.388l10.24-10.24v-556.493l-10.24-10.24h-342.286l-10.24 10.24v556.493l10.24 10.24h342.286zM669.393 734.908h-321.806v-536.013h321.806v536.013z" />
<glyph unicode="&#xe94d;" d="M337.347 668.679l10.24-10.24v-397.266l-10.24-10.24h-81.144l-10.24 10.24v397.266l10.24 10.24h81.144zM327.106 648.199h-60.662v-376.784h60.662v376.784z" />
<glyph unicode="&#xe94e;" d="M256.204 599.094h81.144v13.653h-81.144z" />
<glyph unicode="&#xe94f;" d="M259.617 310.667h81.144v13.653h-81.144z" />
<glyph unicode="&#xe950;" d="M256.204 358.454h81.144v13.653h-81.144z" />
<glyph unicode="&#xe951;" d="M256.204 406.24h81.144v13.653h-81.144z" />
<glyph unicode="&#xe952;" d="M256.204 454.027h81.144v13.653h-81.144z" />
<glyph unicode="&#xe953;" d="M256.204 501.814h81.144v13.653h-81.144z" />
<glyph unicode="&#xe954;" d="M256.204 549.6h81.144v13.653h-81.144z" />
<glyph unicode="&#xe955;" d="M760.601 655.026l10.24-10.24v-397.266l-10.24-10.24h-81.144l-10.24 10.24v397.266l10.24 10.24h81.144zM750.359 634.546h-60.662v-376.784h60.662v376.784z" />
<glyph unicode="&#xe956;" d="M679.457 585.44h81.144v13.653h-81.144z" />
<glyph unicode="&#xe957;" d="M682.87 297.014h81.144v13.653h-81.144z" />
<glyph unicode="&#xe958;" d="M679.457 344.8h81.144v13.653h-81.144z" />
<glyph unicode="&#xe959;" d="M679.457 392.587h81.144v13.653h-81.144z" />
<glyph unicode="&#xe95a;" d="M679.457 440.374h81.144v13.653h-81.144z" />
<glyph unicode="&#xe95b;" d="M679.457 488.16h81.144v13.653h-81.144z" />
<glyph unicode="&#xe95c;" d="M679.457 535.947h81.144v13.653h-81.144z" />
<glyph unicode="&#xe95d;" d="M507.966 518.98l121.967-123.912-121.442-122.078-122.935 122.078z" />
<glyph unicode="&#xe95e;" d="M500.681 526.176l14.583-0.013 121.967-123.912-0.038-14.405-121.442-122.078-14.475-0.044-122.935 122.078-0.069 14.463 122.411 123.912zM507.951 504.398l-107.933-109.261 108.428-107.67 107.080 107.639-107.575 109.292z" />
<glyph unicode="&#xe95f;" glyph-name="filter-check" d="M768 499.2c141.385 0 256-114.615 256-256s-114.615-256-256-256c-141.385 0-256 114.615-256 256s114.615 256 256 256zM840.151 903.68c27.59 0 52.51-15.842 64.258-40.762s8.188-54.29-9.256-75.65l-189.57-231.756c-142.756-29.37-249.912-155.572-249.912-306.872 0-48.772 11.214-95.052 31.15-136.17-2.848 1.424-5.696 3.204-8.366 5.162l-113.92 85.44c-14.418 10.68-22.784 27.59-22.784 45.568v140.798l-325.74 398.008c-17.266 21.182-21.004 50.73-9.078 75.472 11.748 24.92 36.668 40.762 64.258 40.762h768.96zM880.9 324.2c-9.3 9.4-24.5 9.4-33.9 0l-111-111.1-47 47c-9.3 9.4-24.5 9.3-33.9 0s-9.4-24.5 0-33.9l64-64c9.3-9.4 24.5-9.4 33.9 0l128 128-0.1 0.1c9.4 9.3 9.3 24.5 0 33.9z" />
<glyph unicode="&#xe960;" glyph-name="filter" d="M7.79 850.234c13.202 28.003 41.205 45.805 72.208 45.805h864.101c31.004 0 59.007-17.802 72.208-45.805s9.201-61.007-10.401-85.010l-365.843-447.052v-254.23c0-24.203-13.602-46.405-35.404-57.207s-47.606-8.601-67.008 6.001l-128.015 96.011c-16.202 12.001-25.603 31.004-25.603 51.206v158.219l-366.043 447.252c-19.402 23.803-23.603 57.007-10.201 84.81z" />
</font>
</defs>
</svg>
